# xmcd
#
# Track frame offsets:
# 150
# 12795
# 27680
# 44812
# 56290
# 70895
# 87667
# 100265
# 112915
# 128640
# 143322
# 158042
# 170445
# 183327
# 194427
# 210225
#
# Disc length: 2968 seconds
#
# Revision: 2
# Processed by: cddbd v1.5.1PL2 Copyright (c) Steve Scherf et al.
# Submitted via: Audio-CD-Archiv 4.00.531
#
DISCID=d40b9610
DTITLE=Los Llaneros De La Frontera - Gracias Chile
DYEAR=1999
DGENRE=country
TTITLE0=Los Llaneros De La Frontera - Amarga Limosna
TTITLE1=Los Llaneros De La Frontera - Por Una Mujer Casada
TTITLE2=Los Llaneros De La Frontera - Vuelve Vida Mia
TTITLE3=Los Llaneros De La Frontera - Tu Eres Libre
TTITLE4=Los Llaneros De La Frontera - Cositas Mejores
TTITLE5=Los Llaneros De La Frontera - Sin Amor Tambien Se Vive
TTITLE6=Los Llaneros De La Frontera - Loca Maria
TTITLE7=Los Llaneros De La Frontera - Como Una Limosnera
TTITLE8=Los Llaneros De La Frontera - Demasiado Tarde
TTITLE9=Los Llaneros De La Frontera - En La Misma Colina
TTITLE10=Los Llaneros De La Frontera - El Animalito
TTITLE11=Los Llaneros De La Frontera - La Ultima Carta
TTITLE12=Los Llaneros De La Frontera - Un Adios A La Buena
TTITLE13=Los Llaneros De La Frontera - Que El Oro Te Sobre
TTITLE14=Los Llaneros De La Frontera - La Basurita
TTITLE15=Los Llaneros De La Frontera - Mujer Infame
EXTD=
EXTT0=
EXTT1=
EXTT2=
EXTT3=
EXTT4=
EXTT5=
EXTT6=
EXTT7=
EXTT8=
EXTT9=
EXTT10=
EXTT11=
EXTT12=
EXTT13=
EXTT14=
EXTT15=
PLAYORDER=
